<svg width="215" height="68" viewBox="0 0 215 68" fill="none" xmlns="http://www.w3.org/2000/svg">
<path d="M193.588 32.6906H204.607C204.288 29.0153 202.578 27.1747 199.478 27.169C198.732 27.1409 197.989 27.267 197.293 27.5396C196.598 27.8122 195.965 28.2255 195.434 28.754C194.383 29.8101 193.73 31.2021 193.588 32.6906ZM187.424 23.2151C190.439 20.0451 194.411 18.4572 199.341 18.4515C204.47 18.4515 208.337 19.9704 210.942 23.0084C213.547 26.0463 214.858 30.138 214.875 35.2835C214.874 36.3775 214.782 37.4696 214.601 38.5483H193.588C193.668 39.3495 193.917 40.1242 194.318 40.8208C194.719 41.5174 195.263 42.12 195.913 42.5883C197.477 43.6811 199.354 44.2259 201.256 44.1388C205.301 44.2062 209.314 43.4045 213.028 41.7872H213.712V50.8234C210.612 52.2534 206.46 52.9655 201.256 52.9597C195.636 52.9597 191.165 51.3403 187.843 48.1013C184.52 44.8624 182.867 40.6673 182.884 35.5161C182.884 30.4625 184.397 26.3478 187.424 23.172V23.2151ZM128.811 22.3537C134.42 19.7809 139.598 18.4917 144.345 18.4859C148.813 18.4859 152.441 19.7292 155.228 22.2159C158.568 19.8231 162.544 18.4966 166.641 18.4084C175.036 18.4084 179.234 23.0026 179.234 32.191V52.0035H168.65V31.7948C168.681 31.2818 168.593 30.7686 168.393 30.296C168.193 29.8234 167.885 29.4045 167.496 29.0727C166.705 28.4245 165.711 28.0824 164.692 28.1079C162.822 28.1969 160.997 28.7155 159.357 29.624V51.9691H148.731V31.7948C148.76 31.2813 148.67 30.768 148.468 30.2956C148.266 29.8232 147.958 29.4045 147.568 29.0727C146.775 28.4226 145.777 28.0803 144.755 28.1079C142.923 28.1231 141.119 28.5716 139.489 29.4173V51.9691H128.811V22.3537ZM102.634 19.4507V39.7198C102.631 40.2103 102.744 40.6946 102.964 41.1322C103.184 41.5698 103.505 41.9479 103.9 42.2351C104.727 42.9001 105.757 43.2563 106.815 43.243C108.801 43.1617 110.753 42.6906 112.56 41.8561V19.3732H123.101V53.3732C123.101 58.1627 121.682 61.7892 118.826 64.2787C115.971 66.7682 112.175 68 107.43 68C101.771 68 97.3909 67.0812 94.2905 65.2435V56.1383H95.1454C98.8117 57.6745 102.742 58.4705 106.712 58.4814C108.227 58.539 109.711 58.0365 110.884 57.0687C111.446 56.5518 111.886 55.9141 112.17 55.2028C112.454 54.4915 112.576 53.7248 112.526 52.9597V50.7545C110.647 51.5404 108.666 52.051 106.644 52.2706C102.352 52.2706 98.8386 51.2369 96.1029 49.1695C93.3672 47.1021 91.9965 43.8144 91.9908 39.3063V19.3732L102.634 19.4507ZM84.4762 0V41.3479C84.4762 42.5452 84.9036 43.1482 85.7756 43.1482C86.9415 43.1548 88.1066 43.0857 89.2636 42.9415H89.6056V51.9691C87.9566 52.4184 86.2523 52.6273 84.5446 52.5893C77.3805 52.5893 73.7984 49.2355 73.7984 42.528V0H84.4762ZM36.5332 22.2762C42.2325 19.7034 47.5244 18.4142 52.4087 18.4084C62.7246 18.4084 67.8825 23.0313 67.8825 32.2772V51.9949H57.2731V31.8637C57.2879 31.3491 57.1844 30.838 56.9709 30.3703C56.7574 29.9027 56.4395 29.491 56.0421 29.1675C55.1273 28.4475 53.9872 28.0809 52.8276 28.1338C50.8603 28.1457 48.9196 28.5926 47.1425 29.4431V51.9949H36.5332V22.2762ZM10.5697 19.3732V39.8576C10.5749 40.3449 10.7032 40.8229 10.9425 41.2464C11.1818 41.6699 11.5243 42.025 11.9376 42.2782C12.9737 42.9546 14.192 43.2916 15.4256 43.243C16.6373 43.2875 17.8326 42.9502 18.8452 42.2782C19.2505 42.0191 19.5849 41.6618 19.8179 41.239C20.0509 40.8162 20.175 40.3412 20.1789 39.8576V19.3732H30.8566V41.4426C30.9034 43.0735 30.5466 44.6905 29.8183 46.1478C29.0899 47.605 28.013 48.8566 26.6847 49.7897C23.835 51.9088 20.0706 52.9655 15.3914 52.9597C10.7122 52.954 6.98485 51.9088 4.20926 49.8242C2.87525 48.8863 1.7928 47.6297 1.05878 46.1671C0.324754 44.7044 -0.0379441 43.0811 0.00313937 41.4426V19.3732H10.5697Z" fill="white"/>
</svg>
