<svg width="315" height="68" viewBox="0 0 315 68" fill="none" xmlns="http://www.w3.org/2000/svg">
<g clip-path="url(#clip0_821_1508)">
<path d="M194.356 32.6906H205.376C205.056 29.0153 203.347 27.1747 200.246 27.169C199.5 27.1409 198.757 27.267 198.061 27.5396C197.366 27.8122 196.733 28.2255 196.202 28.754C195.152 29.8101 194.499 31.2021 194.356 32.6906ZM188.192 23.2151C191.207 20.0451 195.179 18.4572 200.109 18.4515C205.239 18.4515 209.106 19.9704 211.71 23.0084C214.315 26.0463 215.626 30.138 215.643 35.2835C215.642 36.3775 215.551 37.4696 215.369 38.5483H194.356C194.436 39.3495 194.685 40.1242 195.086 40.8208C195.487 41.5174 196.031 42.12 196.681 42.5883C198.246 43.6811 200.123 44.2259 202.024 44.1388C206.07 44.2062 210.083 43.4045 213.796 41.7872H214.48V50.8234C211.38 52.2534 207.228 52.9655 202.024 52.9597C196.405 52.9597 191.934 51.3403 188.611 48.1013C185.288 44.8624 183.635 40.6673 183.652 35.5161C183.652 30.4625 185.166 26.3478 188.192 23.172V23.2151ZM129.58 22.3537C135.188 19.7809 140.366 18.4917 145.113 18.4859C149.582 18.4859 153.209 19.7292 155.996 22.2159C159.336 19.8231 163.312 18.4966 167.409 18.4084C175.804 18.4084 180.002 23.0026 180.002 32.191V52.0035H169.418V31.7948C169.45 31.2818 169.362 30.7686 169.161 30.296C168.961 29.8234 168.654 29.4045 168.264 29.0727C167.474 28.4245 166.479 28.0824 165.46 28.1079C163.59 28.1969 161.766 28.7155 160.126 29.624V51.9691H149.499V31.7948C149.528 31.2813 149.438 30.768 149.236 30.2956C149.035 29.8232 148.726 29.4045 148.336 29.0727C147.544 28.4226 146.546 28.0803 145.524 28.1079C143.691 28.1231 141.887 28.5716 140.258 29.4173V51.9691H129.58V22.3537ZM103.403 19.4507V39.7198C103.399 40.2103 103.512 40.6946 103.732 41.1322C103.952 41.5698 104.273 41.9479 104.668 42.2351C105.495 42.9002 106.525 43.2563 107.583 43.243C109.569 43.1617 111.521 42.6906 113.328 41.8561V19.3732H123.869V53.3732C123.869 58.1627 122.45 61.7892 119.595 64.2787C116.739 66.7682 112.943 68 108.199 68C102.539 68 98.1593 67.0812 95.0588 65.2435V56.1383H95.9137C99.58 57.6745 103.51 58.4705 107.481 58.4814C108.996 58.539 110.479 58.0365 111.653 57.0687C112.215 56.5518 112.654 55.9141 112.938 55.2028C113.222 54.4915 113.344 53.7248 113.294 52.9597V50.7545C111.415 51.5404 109.435 52.051 107.412 52.2706C103.121 52.2706 99.6069 51.2369 96.8712 49.1695C94.1355 47.1021 92.7648 43.8144 92.7591 39.3063V19.3732L103.403 19.4507ZM85.2445 0V41.3479C85.2445 42.5452 85.672 43.1482 86.544 43.1482C87.7099 43.1548 88.8749 43.0857 90.032 42.9415H90.374V51.9691C88.725 52.4184 87.0207 52.6273 85.3129 52.5893C78.1488 52.5893 74.5668 49.2355 74.5668 42.528V0H85.2445ZM37.3015 22.2762C43.0009 19.7034 48.2928 18.4142 53.1771 18.4084C63.4929 18.4084 68.6509 23.0313 68.6509 32.2772V51.9949H58.0415V31.8637C58.0562 31.3491 57.9528 30.838 57.7393 30.3703C57.5257 29.9027 57.2079 29.491 56.8104 29.1675C55.8957 28.4475 54.7556 28.0809 53.596 28.1338C51.6287 28.1457 49.688 28.5926 47.9109 29.4431V51.9949H37.3015V22.2762ZM11.3381 19.3732V39.8576C11.3433 40.3449 11.4716 40.8229 11.7109 41.2464C11.9502 41.6699 12.2927 42.025 12.706 42.2782C13.742 42.9546 14.9604 43.2916 16.194 43.243C17.4057 43.2875 18.601 42.9502 19.6136 42.2782C20.0189 42.0191 20.3533 41.6618 20.5863 41.239C20.8192 40.8162 20.9433 40.3412 20.9472 39.8576V19.3732H31.625V41.4426C31.6718 43.0735 31.315 44.6905 30.5866 46.1478C29.8583 47.605 28.7814 48.8566 27.453 49.7897C24.6034 51.9088 20.8389 52.9655 16.1598 52.9597C11.4806 52.954 7.75322 51.9088 4.97764 49.8242C3.64362 48.8863 2.56117 47.6297 1.82715 46.1671C1.09313 44.7044 0.730427 43.0811 0.771511 41.4426V19.3732H11.3381Z" fill="black"/>
<path d="M287.207 28.4697C287.166 27.0809 287.464 25.7032 288.073 24.4569C288.683 23.2106 289.586 22.1336 290.704 21.3199C293.029 19.5569 296.226 18.6725 300.296 18.6668C304.563 18.567 308.777 19.6389 312.487 21.7679V27.5652H311.999C308.589 25.2788 304.596 24.0344 300.501 23.9817C298.221 23.9817 296.497 24.4067 295.329 25.2566C294.808 25.5972 294.379 26.0628 294.08 26.6115C293.782 27.1603 293.623 27.7751 293.619 28.4008C293.595 28.9119 293.705 29.4203 293.939 29.8742C294.174 30.3282 294.523 30.7115 294.952 30.985C296.192 31.6849 297.548 32.1519 298.953 32.3633L305.322 33.6726C307.773 34.069 310.07 35.1323 311.965 36.7479C313.478 38.152 314.23 40.1935 314.23 42.9931C314.255 44.3951 313.944 45.7824 313.323 47.0374C312.703 48.2925 311.791 49.3784 310.666 50.2031C308.3 52.0638 304.881 52.9941 300.407 52.9941C298.137 52.9729 295.875 52.7072 293.662 52.2016C291.494 51.7771 289.404 51.0219 287.463 49.962V44.1646H288.079C291.806 46.5421 296.133 47.7891 300.544 47.7567C302.419 47.8723 304.281 47.3737 305.852 46.3354C306.4 45.9946 306.857 45.5249 307.185 44.9667C307.512 44.4085 307.701 43.7786 307.733 43.1309C307.733 40.874 305.69 39.3579 301.638 38.5051L295.406 37.1958C289.968 36.0472 287.25 33.15 287.25 28.5041M256.601 35.8865C256.542 38.8059 257.626 41.6314 259.619 43.7512C260.557 44.7882 261.699 45.6167 262.972 46.1835C264.245 46.7504 265.622 47.0432 267.014 47.0432C268.406 47.0432 269.783 46.7504 271.056 46.1835C272.33 45.6167 273.472 44.7882 274.409 43.7512C276.351 41.5839 277.426 38.7677 277.426 35.8477C277.426 32.9276 276.351 30.1114 274.409 27.9442C273.468 26.913 272.325 26.0898 271.052 25.5267C269.779 24.9636 268.404 24.6729 267.014 24.6729C265.624 24.6729 264.249 24.9636 262.976 25.5267C261.703 26.0898 260.56 26.913 259.619 27.9442C257.609 30.0734 256.51 32.9135 256.559 35.852L256.601 35.8865ZM250.164 35.8865C250.102 33.6295 250.495 31.3833 251.32 29.2837C252.144 27.1842 253.382 25.275 254.96 23.6716C258.197 20.5281 262.518 18.7718 267.014 18.7718C271.51 18.7718 275.831 20.5281 279.068 23.6716C280.646 25.275 281.884 27.1842 282.709 29.2837C283.533 31.3833 283.926 33.6295 283.864 35.8865C283.92 38.1324 283.524 40.3665 282.7 42.454C281.876 44.5415 280.64 46.4391 279.068 48.0324C275.851 51.2019 271.531 52.9765 267.031 52.9765C262.532 52.9765 258.211 51.2019 254.994 48.0324C253.407 46.4392 252.157 44.5385 251.32 42.445C250.482 40.3515 250.075 38.1087 250.121 35.852L250.164 35.8865Z" fill="black"/>
<path fill-rule="evenodd" clip-rule="evenodd" d="M231.527 41.4253H236.827V47.6189H242.983V52.9683H236.827V59.1618H231.527V52.9683H225.372V47.6189H231.527V41.4253ZM234.177 36.9718C236.793 36.9718 239.351 37.7536 241.526 39.2183C243.701 40.6829 245.396 42.7647 246.397 45.2002C247.397 47.6357 247.659 50.3156 247.148 52.9008C246.637 55.4861 245.376 57.8605 243.526 59.7239C241.676 61.5872 239.318 62.8557 236.752 63.3689C234.186 63.8822 231.527 63.617 229.11 62.6071C226.694 61.5972 224.629 59.8878 223.177 57.6952C221.724 55.5026 220.95 52.9253 220.952 50.2893C220.952 48.5389 221.294 46.8058 221.96 45.1889C222.625 43.572 223.6 42.1032 224.829 40.8663C226.058 39.6294 227.517 38.6488 229.123 37.9806C230.728 37.3123 232.449 36.9695 234.186 36.9718H234.177Z" fill="black"/>
</g>
<defs>
<clipPath id="clip0_821_1508">
<rect width="313.463" height="68" fill="white" transform="translate(0.768311)"/>
</clipPath>
</defs>
</svg>
