<svg width="48" height="48" viewBox="0 0 48 48" fill="none" xmlns="http://www.w3.org/2000/svg">
<path opacity="0.5" d="M6.75503 10.1648C6 11.2406 6 14.4381 6 20.8333V23.9827C6 35.2589 14.4779 40.731 19.7971 43.0545C21.24 43.6848 21.9615 44 24 44C26.0385 44 26.76 43.6849 28.2029 43.0546C33.5221 40.731 42 35.2589 42 23.9827V20.8333C42 14.4381 42 11.2406 41.245 10.1648C40.4899 9.08908 37.4834 8.05991 31.4702 6.00159L30.3246 5.60943C27.19 4.53648 25.6228 4 24 4C22.3772 4 20.81 4.53648 17.6754 5.60943L16.5298 6.00158C10.5166 8.05991 7.51006 9.08908 6.75503 10.1648Z" fill="#EC28A8"/>
<path d="M30.1189 20.999C30.6707 20.3811 30.617 19.4329 29.999 18.8811C29.3811 18.3294 28.4329 18.383 27.8811 19.001L21.8572 25.7478L20.1189 23.801C19.5672 23.183 18.6189 23.1294 18.001 23.6811C17.383 24.2329 17.3294 25.1811 17.8811 25.799L20.7383 28.999C21.0228 29.3178 21.4299 29.5 21.8572 29.5C22.2845 29.5 22.6915 29.3178 22.9761 28.999L30.1189 20.999Z" fill="#EC28A8"/>
</svg>
