<svg width="48" height="48" viewBox="0 0 48 48" fill="none" xmlns="http://www.w3.org/2000/svg">
<path fill-rule="evenodd" clip-rule="evenodd" d="M22.6046 27.4737H25.3953H37.0232C40.1057 27.4737 42.6046 25.0702 42.6046 22.1053C42.6046 19.1404 40.1057 16.7368 37.0232 16.7368C40.1057 16.7368 42.6046 14.3333 42.6046 11.3684C42.6046 8.40352 40.1057 6 37.0232 6H10.9767C7.89414 6 5.39526 8.40352 5.39526 11.3684C5.39526 14.3333 7.89414 16.7368 10.9767 16.7368C7.89414 16.7368 5.39526 19.1404 5.39526 22.1053C5.39526 25.0702 7.89414 27.4737 10.9767 27.4737H22.6046ZM25.8604 10.0263C25.0897 10.0263 24.465 10.6272 24.465 11.3684C24.465 12.1096 25.0897 12.7105 25.8604 12.7105H37.0232C37.7938 12.7105 38.4185 12.1096 38.4185 11.3684C38.4185 10.6272 37.7938 10.0263 37.0232 10.0263H25.8604ZM25.8604 20.7632C25.0897 20.7632 24.465 21.364 24.465 22.1053C24.465 22.8465 25.0897 23.4474 25.8604 23.4474H37.0232C37.7938 23.4474 38.4185 22.8465 38.4185 22.1053C38.4185 21.364 37.7938 20.7632 37.0232 20.7632H25.8604ZM14.6976 11.3684C14.6976 12.3567 13.8646 13.1579 12.8371 13.1579C11.8096 13.1579 10.9767 12.3567 10.9767 11.3684C10.9767 10.3801 11.8096 9.57895 12.8371 9.57895C13.8646 9.57895 14.6976 10.3801 14.6976 11.3684ZM14.6976 22.1053C14.6976 23.0936 13.8646 23.8947 12.8371 23.8947C11.8096 23.8947 10.9767 23.0936 10.9767 22.1053C10.9767 21.117 11.8096 20.3158 12.8371 20.3158C13.8646 20.3158 14.6976 21.117 14.6976 22.1053Z" fill="#EC28A8"/>
<path opacity="0.6" d="M44 36.422C44 35.6808 43.3753 35.0799 42.6046 35.0799H27.4505C27.0729 34.1827 26.3281 33.4663 25.3953 33.1032V27.4746H22.6047V33.1032C21.6719 33.4663 20.9271 34.1827 20.5495 35.0799H5.39535C4.62472 35.0799 4 35.6808 4 36.422C4 37.1632 4.62472 37.7641 5.39535 37.7641H20.5495C21.1015 39.0757 22.4384 40.0009 24 40.0009C25.5616 40.0009 26.8985 39.0757 27.4505 37.7641H42.6046C43.3753 37.7641 44 37.1632 44 36.422Z" fill="#EC28A8"/>
</svg>
