<svg width="48" height="48" viewBox="0 0 48 48" fill="none" xmlns="http://www.w3.org/2000/svg">
<path opacity="0.5" d="M44 28V23.5958C44 18.3311 44 15.6987 42.4611 13.9877C42.3195 13.8303 42.1697 13.6805 42.0123 13.5389C40.3013 12 37.6689 12 32.4042 12H31.6569C29.3495 12 28.1958 12 27.1207 11.6936C26.5301 11.5252 25.9609 11.2894 25.4242 10.9908C24.4473 10.4473 23.6316 9.63156 22 8L20.8995 6.8995C20.3526 6.35265 20.0792 6.07923 19.7919 5.84103C18.553 4.81407 17.0333 4.18457 15.4311 4.03475C15.0595 4 14.6728 4 13.8995 4C12.1344 4 11.2519 4 10.5168 4.1387C7.28062 4.74928 4.74928 7.28062 4.1387 10.5168C4 11.2519 4 12.1344 4 13.8995V28C4 35.5425 4 39.3137 6.34315 41.6568C8.68629 44 12.4575 44 20 44H28C35.5425 44 39.3137 44 41.6568 41.6568C44 39.3137 44 35.5425 44 28Z" fill="#EC28A8"/>
<path d="M32 27.7647C32 30.1038 29.9533 32 27.4286 32H19.4286C17.535 32 16 30.5778 16 28.8235C16 27.0692 17.535 25.6471 19.4286 25.6471C19.6559 25.6471 19.878 25.6676 20.0929 25.7066C19.9096 25.2483 19.8095 24.7527 19.8095 24.2353C19.8095 21.8962 21.8562 20 24.381 20C26.7327 20 28.6697 21.6453 28.9241 23.7612C30.7144 24.3352 32 25.9108 32 27.7647Z" fill="#EC28A8"/>
</svg>
